HIERARCHY
ROOT hip
{
  OFFSET 0 0 0
  CHANNELS 6 Xposition Yposition Zposition Zrotation Yrotation Xrotation
  JOINT abdomen
  {
    OFFSET 0 20.6881 -0.73152
    CHANNELS 3 Zrotation Xrotation Yrotation
    JOINT chest
    {
      OFFSET 0 11.7043 -0.48768
      CHANNELS 3 Zrotation Xrotation Yrotation
      JOINT neck
      {
        OFFSET 0 22.1894 -2.19456
        CHANNELS 3 Zrotation Xrotation Yrotation
        JOINT head
        {
          OFFSET -0.24384 7.07133 1.2192
          CHANNELS 3 Zrotation Xrotation Yrotation
          JOINT leftEye
          {
            OFFSET 4.14528 8.04674 8.04672
            CHANNELS 3 Zrotation Xrotation Yrotation
            End Site
            {
              OFFSET 1 0 0
            }
          }
          JOINT rightEye
          {
            OFFSET -3.6576 8.04674 8.04672
            CHANNELS 3 Zrotation Xrotation Yrotation
            End Site
            {
              OFFSET 1 0 0
            }
          }
        }
      }
      JOINT rCollar
      {
        OFFSET -2.68224 19.2634 -4.8768
        CHANNELS 3 Zrotation Xrotation Yrotation
        JOINT rShldr
        {
          OFFSET -8.77824 -1.95073 1.46304
          CHANNELS 3 Zrotation Xrotation Yrotation
          JOINT rForeArm
          {
            OFFSET -28.1742 -1.7115 0.48768
            CHANNELS 3 Zrotation Xrotation Yrotation
            JOINT rHand
            {
              OFFSET -22.5879 0.773209 7.07136
              CHANNELS 3 Zrotation Xrotation Yrotation
              JOINT rThumb1
              {
                OFFSET -1.2192 -0.487915 3.41376
                CHANNELS 3 Zrotation Xrotation Yrotation
                JOINT rThumb2
                {
                  OFFSET -3.37035 -0.52449 3.41376
                  CHANNELS 3 Zrotation Xrotation Yrotation
                  End Site
                  {
                    OFFSET -1.78271 -1.18214 1.43049
                  }
                }
              }
              JOINT rIndex1
              {
                OFFSET -7.75947 0.938293 5.60832
                CHANNELS 3 Zrotation Xrotation Yrotation
                JOINT rIndex2
                {
                  OFFSET -2.54057 -0.884171 1.56538
                  CHANNELS 3 Zrotation Xrotation Yrotation
                  End Site
                  {
                    OFFSET -1.62519 -0.234802 1.16502
                  }
                }
              }
              JOINT rMid1
              {
                OFFSET -8.24714 1.18213 3.41376
                CHANNELS 3 Zrotation Xrotation Yrotation
                JOINT rMid2
                {
                  OFFSET -3.10165 -0.590103 1.0647
                  CHANNELS 3 Zrotation Xrotation Yrotation
                  End Site
                  {
                    OFFSET -2.48547 -0.328903 0.83742
                  }
                }
              }
              JOINT rRing1
              {
                OFFSET -8.82822 0.546677 1.51678
                CHANNELS 3 Zrotation Xrotation Yrotation
                JOINT rRing2
                {
                  OFFSET -2.60934 -0.819778 -0.0198488
                  CHANNELS 3 Zrotation Xrotation Yrotation
                  End Site
                  {
                    OFFSET -2.33842 -0.294052 0.168128
                  }
                }
              }
              JOINT rPinky1
              {
                OFFSET -8.27202 -0.0477905 -0.4584
                CHANNELS 3 Zrotation Xrotation Yrotation
                JOINT rPinky2
                {
                  OFFSET -1.82734 -0.647385 -0.700984
                  CHANNELS 3 Zrotation Xrotation Yrotation
                  End Site
                  {
                    OFFSET -1.69225 -0.51767 -0.607171
                  }
                }
              }
            }
          }
        }
      }
      JOINT lCollar
      {
        OFFSET 2.68224 19.2634 -4.8768
        CHANNELS 3 Zrotation Xrotation Yrotation
        JOINT lShldr
        {
          OFFSET 8.77824 -1.95073 1.46304
          CHANNELS 3 Zrotation Xrotation Yrotation
          JOINT lForeArm
          {
            OFFSET 28.1742 -1.7115 0.48768
            CHANNELS 3 Zrotation Xrotation Yrotation
            JOINT lHand
            {
              OFFSET 22.5879 0.773209 7.07136
              CHANNELS 3 Zrotation Xrotation Yrotation
              JOINT lThumb1
              {
                OFFSET 1.2192 -0.487915 3.41376
                CHANNELS 3 Zrotation Xrotation Yrotation
                JOINT lThumb2
                {
                  OFFSET 3.37035 -0.52449 3.41376
                  CHANNELS 3 Zrotation Xrotation Yrotation
                  End Site
                  {
                    OFFSET 1.78271 -1.18214 1.43049
                  }
                }
              }
              JOINT lIndex1
              {
                OFFSET 7.75947 0.938293 5.60832
                CHANNELS 3 Zrotation Xrotation Yrotation
                JOINT lIndex2
                {
                  OFFSET 2.54057 -0.884171 1.56538
                  CHANNELS 3 Zrotation Xrotation Yrotation
                  End Site
                  {
                    OFFSET 1.62519 -0.234802 1.16502
                  }
                }
              }
              JOINT lMid1
              {
                OFFSET 8.24714 1.18213 3.41376
                CHANNELS 3 Zrotation Xrotation Yrotation
                JOINT lMid2
                {
                  OFFSET 3.10165 -0.590103 1.0647
                  CHANNELS 3 Zrotation Xrotation Yrotation
                  End Site
                  {
                    OFFSET 2.48547 -0.328903 0.83742
                  }
                }
              }
              JOINT lRing1
              {
                OFFSET 8.82822 0.546677 1.51678
                CHANNELS 3 Zrotation Xrotation Yrotation
                JOINT lRing2
                {
                  OFFSET 2.60934 -0.819778 -0.0198488
                  CHANNELS 3 Zrotation Xrotation Yrotation
                  End Site
                  {
                    OFFSET 2.33842 -0.294052 0.168128
                  }
                }
              }
              JOINT lPinky1
              {
                OFFSET 8.27202 -0.0477905 -0.4584
                CHANNELS 3 Zrotation Xrotation Yrotation
                JOINT lPinky2
                {
                  OFFSET 1.82734 -0.647385 -0.700984
                  CHANNELS 3 Zrotation Xrotation Yrotation
                  End Site
                  {
                    OFFSET 1.69225 -0.51767 -0.607171
                  }
                }
              }
            }
          }
        }
      }
    }
  }
  JOINT rButtock
  {
    OFFSET -8.77824 4.35084 1.2192
    CHANNELS 3 Zrotation Xrotation Yrotation
    JOINT rThigh
    {
      OFFSET 0 -1.70687 -2.19456
      CHANNELS 3 Zrotation Xrotation Yrotation
      JOINT rShin
      {
        OFFSET 0 -36.8199 0.73152
        CHANNELS 3 Zrotation Xrotation Yrotation
        JOINT rFoot
        {
          OFFSET 0.73152 -45.1104 -5.12064
          CHANNELS 3 Zrotation Xrotation Yrotation
          End Site
          {
            OFFSET -1.1221 -3.69964 12.103
          }
        }
      }
    }
  }
  JOINT lButtock
  {
    OFFSET 8.77824 4.35084 1.2192
    CHANNELS 3 Zrotation Xrotation Yrotation
    JOINT lThigh
    {
      OFFSET 0 -1.70687 -2.19456
      CHANNELS 3 Zrotation Xrotation Yrotation
      JOINT lShin
      {
        OFFSET 0 -36.8199 0.73152
        CHANNELS 3 Zrotation Xrotation Yrotation
        JOINT lFoot
        {
          OFFSET -0.73152 -45.1104 -5.12064
          CHANNELS 3 Zrotation Xrotation Yrotation
          End Site
          {
            OFFSET 1.1221 -3.69964 12.103
          }
        }
      }
    }
  }
}
MOTION
Frames:	4
Frame Time:	0.03333
0.0875717494636774 58.78918766975403 0.22430140525102615 -2.748645544052124 3.5513999462127686 5.205869674682617 -2.2528724670410156 14.713720321655273 3.952310562133789 2.5180604457855225 -10.089829444885254 1.0744987726211548 -4.830514907836914 14.712177276611328 -3.2438266277313232 8.447529792785645 -23.53898811340332 -4.435123920440674 -0.02801288291811943 0.027078967541456223 0.14394687116146088 0.06929276883602142 0.039009757339954376 -0.0055463314056396484 -0.04650520533323288 -0.057776112109422684 -0.0043870978988707066 37.956233978271484 30.798946380615234 17.53614044189453 -28.6163272857666 -26.364025115966797 56.699310302734375 -0.14125286042690277 -9.720558166503906 -2.1025030612945557 0.0030143195763230324 0.19670413434505463 -0.009862961247563362 0.014491315931081772 -0.11702293157577515 -0.095420703291893 0.00838400237262249 0.03589239716529846 0.028792541474103928 7.7103142738342285 5.498288631439209 0.4128553867340088 -0.07374737411737442 0.10792999714612961 0.06173728406429291 3.033491849899292 0.9628204703330994 0.0629306212067604 -0.059925541281700134 -0.1510450839996338 0.04979342222213745 10.18431282043457 0.7647349834442139 0.024673670530319214 -0.023074181750416756 -0.044052932411432266 0.10289918631315231 2.164889097213745 -0.7072476148605347 -0.26730236411094666 -0.04847835376858711 -0.002476802794262767 0.25365522503852844 -44.85212707519531 32.13496017456055 -25.495723724365234 27.546560287475586 -24.765199661254883 -54.70924377441406 0.15067976713180542 -12.821992874145508 2.5212244987487793 -0.07202809303998947 -0.08075755834579468 -0.17741969227790833 -0.1171010360121727 -0.16562974452972412 -0.05362401902675629 -0.038561344146728516 -0.06736423075199127 0.005230600945651531 -7.823734760284424 5.575222969055176 -0.4319271445274353 0.07174557447433472 0.046132560819387436 -0.13931363821029663 -2.9939959049224854 0.9292979836463928 -0.12464652955532074 0.021092966198921204 0.05732059106230736 -0.05836651101708412 -10.085858345031738 0.7568550109863281 0.07705890387296677 0.07175098359584808 0.030563440173864365 0.07583748549222946 -2.3424277305603027 -0.6754932999610901 0.2023290991783142 0.03358655795454979 -0.07323314994573593 -0.05957017093896866 -22.28964614868164 -35.35194778442383 -19.073598861694336 -1.1090075969696045 57.130794525146484 2.0351133346557617 -3.5336551666259766 -10.612881660461426 -9.487311363220215 -0.01852073334157467 0.2631663680076599 -0.08095143735408783 26.129867553710938 -34.73998260498047 19.869150161743164 0.936088502407074 58.86906814575195 -2.293039083480835 4.057506084442139 -10.737627983093262 12.159576416015625
0.058777909725904465 65.71005582809448 0.1277133822441101 -4.345998764038086 1.3128602504730225 6.211085796356201 -2.606351375579834 14.512681007385254 3.8087575435638428 2.7885024547576904 -9.397720336914062 1.2174596786499023 -5.723493576049805 15.497658729553223 -4.199580192565918 9.032258987426758 -24.627958297729492 -6.1408257484436035 -0.022904079407453537 -0.07296417653560638 -0.05639859661459923 -0.05927303060889244 -0.11474303901195526 0.07675938308238983 0.01087159849703312 0.22870878875255585 -0.10794645547866821 48.25438690185547 38.65810775756836 16.075437545776367 -27.660808563232422 -28.228300094604492 64.74200439453125 -0.21469397842884064 -10.097107887268066 -1.3275271654129028 0.14016813039779663 -0.3015342652797699 0.12222186475992203 0.07183719426393509 0.13980184495449066 0.12325528264045715 0.19647185504436493 0.14077891409397125 0.05728079751133919 7.909508228302002 5.454251766204834 0.5206700563430786 -0.004353008233010769 -0.16116361320018768 -0.08907528966665268 2.794516086578369 1.0474504232406616 0.3224070370197296 0.09215222299098969 0.20415984094142914 0.048121847212314606 10.534411430358887 0.7290148735046387 0.09205073118209839 0.02187586948275566 0.16178444027900696 -0.10868819802999496 2.392155170440674 -0.6971190571784973 -0.21703006327152252 0.06569929420948029 -0.06174483150243759 -0.30274298787117004 -55.63927459716797 39.851680755615234 -26.959253311157227 27.148591995239258 -25.876577377319336 -61.22723388671875 0.3141976594924927 -10.021859169006348 1.1618072986602783 0.025028983131051064 0.0940723866224289 0.07752366364002228 0.10060374438762665 0.09399262070655823 0.008772985078394413 0.16549250483512878 0.06385239213705063 -0.008878059685230255 -7.767352104187012 5.5404438972473145 -0.5047495365142822 -0.1331489384174347 -0.05095532909035683 0.022656409069895744 -3.0176186561584473 1.0234272480010986 -0.07337582856416702 0.082394078373909 -0.030351361259818077 -0.08276135474443436 -10.572625160217285 0.7005102634429932 -0.1500440090894699 -0.14744798839092255 -0.07518899440765381 -0.12029299139976501 -2.1191000938415527 -0.8869630694389343 0.2916935086250305 -0.12754520773887634 0.06277456134557724 0.18894387781620026 -24.078081130981445 -39.7407112121582 -19.06277084350586 -1.3850457668304443 66.3486557006836 2.729999542236328 -3.8532028198242188 -11.10477066040039 -10.791868209838867 0.05246299132704735 -0.17989417910575867 0.04316120594739914 30.56277847290039 -40.63395309448242 22.64255714416504 1.9355019330978394 67.5383529663086 -2.8661696910858154 4.04972505569458 -10.662018775939941 14.140153884887695
0.5316396709531546 57.963669300079346 0.5310005508363247 1.9120277166366577 16.2478084564209 0.9042819142341614 -8.301424026489258 13.067712783813477 -0.5194575190544128 4.759506702423096 -7.77599573135376 -0.47478199005126953 -6.787076950073242 14.835226058959961 -8.277806282043457 10.706306457519531 -21.27601432800293 -13.744881629943848 -0.1869238018989563 -0.225838303565979 -0.03872714191675186 -0.2276962399482727 0.058878034353256226 -0.2146742194890976 0.025147369131445885 0.07384408265352249 -0.19053667783737183 45.108116149902344 23.11583137512207 14.680378913879395 -20.884113311767578 -14.747944831848145 44.54953384399414 -0.3337317407131195 2.0736804008483887 0.053447283804416656 -0.06442257761955261 -0.042799655348062515 -0.1769304871559143 0.019433915615081787 -0.1416788250207901 -0.10040061920881271 -0.03368855640292168 0.33468151092529297 -0.06606930494308472 7.2481818199157715 5.226503372192383 0.5586300492286682 0.3738473951816559 0.0006028303178027272 0.01366064790636301 2.80094051361084 0.7613683938980103 0.26630520820617676 -0.019145715981721878 -0.09607260674238205 -0.0014601032016798854 9.380939483642578 0.7565535306930542 0.09269620478153229 -0.062749944627285 0.05818736553192139 -0.17438142001628876 2.256054401397705 -0.7994961142539978 -0.323965847492218 -0.02967476285994053 0.055452387779951096 -0.019584642723202705 -55.67801284790039 40.27706527709961 -16.120546340942383 22.997875213623047 -18.35198974609375 -49.8432502746582 0.08131551742553711 -14.373184204101562 1.602283239364624 -0.23575359582901 0.0936373621225357 -0.30394354462623596 0.15797118842601776 0.2218867391347885 0.26479271054267883 0.012034744024276733 -0.03937399759888649 -0.16649308800697327 -7.0657196044921875 5.189333915710449 -0.7377656102180481 0.20552639663219452 0.34295058250427246 0.011851216666400433 -2.521906614303589 1.3002508878707886 0.043300412595272064 -0.07299090921878815 -0.20942585170269012 0.38569140434265137 -9.275039672851562 0.6779288649559021 -0.16065020859241486 0.27961301803588867 -0.08348367363214493 -0.1463819444179535 -2.3023252487182617 -0.7616287469863892 0.5845043063163757 -0.18363310396671295 -0.04798408970236778 0.1434641182422638 -29.089529037475586 -49.525333404541016 -20.911623001098633 -1.2371211051940918 62.785396575927734 1.6814124584197998 -0.42912501096725464 -3.803698778152466 1.6469675302505493 -0.14513951539993286 0.20462298393249512 -0.20297706127166748 11.47439956665039 -14.32435417175293 5.13547420501709 0.3640865087509155 45.26681137084961 -2.141531229019165 7.912559509277344 -14.816197395324707 22.430252075195312
1.0995995253324509 66.05774164199829 0.6734037771821022 10.226197242736816 30.746706008911133 -3.131263256072998 -13.862188339233398 15.54681396484375 -4.110137939453125 7.783477306365967 -8.559362411499023 -1.2558907270431519 -7.662879943847656 17.98258399963379 -11.706804275512695 13.670679092407227 -24.509502410888672 -19.10959815979004 0.05537916347384453 -0.09993810951709747 0.24132201075553894 -0.2688612639904022 0.14618852734565735 -0.610235869884491 -0.1164267435669899 -0.16582366824150085 -0.3483845293521881 63.46903610229492 20.864316940307617 -2.8125243186950684 -20.527488708496094 -14.141571044921875 39.64870834350586 -0.43624016642570496 7.5752272605896 0.4381277859210968 0.06069261208176613 0.598747968673706 0.13348068296909332 0.19366738200187683 -0.12104273587465286 -0.3623389005661011 0.2253613919019699 0.6691422462463379 0.33014345169067383 8.221007347106934 5.9759202003479 0.1749221384525299 0.06625783443450928 -0.09432715177536011 0.26793140172958374 3.1952786445617676 0.4763961732387543 0.1672772914171219 0.2671810984611511 -0.1974804550409317 -0.01787402108311653 11.293144226074219 0.49725791811943054 -0.2059319019317627 0.23140577971935272 0.04135192558169365 0.011935562826693058 2.8973662853240967 -0.7078400254249573 -0.2590446472167969 0.15321893990039825 0.3458137512207031 0.30952686071395874 -66.49421691894531 38.111331939697266 -10.954153060913086 21.81269073486328 -15.618932723999023 -43.23530197143555 0.23271338641643524 -8.845344543457031 1.250161051750183 0.10254707932472229 -0.09363526105880737 -0.3451405465602875 0.21916669607162476 0.16613121330738068 0.15195713937282562 -0.16018405556678772 -0.3596927523612976 -0.007676053326576948 -7.669068336486816 5.46978759765625 -0.23482578992843628 0.19334697723388672 -0.10286076366901398 0.04228566959500313 -2.7854669094085693 0.9666179418563843 -0.3777133822441101 0.4346607029438019 0.08297517895698547 -0.24498571455478668 -10.666525840759277 0.6960853934288025 0.017589451745152473 -0.017397068440914154 0.5967258214950562 0.28786763548851013 -2.596142292022705 -0.35651010274887085 0.4574538767337799 0.11108110100030899 0.3796553909778595 -0.059493184089660645 -49.4556770324707 -58.94844436645508 -37.172176361083984 -2.2692134380340576 65.77057647705078 2.243593215942383 1.9541152715682983 0.5829731822013855 10.977330207824707 -0.0736069604754448 -0.01665346510708332 0.23500843346118927 9.87025260925293 6.512126445770264 2.5745604038238525 -0.5148781538009644 39.055660247802734 -2.5027003288269043 13.83644962310791 -20.814502716064453 34.143226623535156
